:version 1.10
:name ASF
:units
  mass 1
  length 1
  angle deg
:documentation
  ASF file generated by Kaydara
:root
  axis xyz
  order  tx ty tz rx ry rz
  position 0 0 0
  orientation 0 0 0
:bonedata
  begin
    id 1
    name RightUpLegDummy
    direction -1 2.30186e-007 8.31532e-007
    length 4.04083
    axis 0 0 0 xyz
  end
  begin
    id 2
    name RightUpLeg
    direction -0.000919234 -0.999985 0.00544864
    length 17.4221
    axis -3.80308 -0.00076134 -0.0523649 xyz
    dof rx ry rz
  end
  begin
    id 3
    name RightLeg
    direction -0.000919271 -0.999984 -0.00555045
    length 17.1239
    axis 4.00314 0.0181274 -0.183583 xyz
    dof rx ry rz
  end
  begin
    id 4
    name RightFoot
    direction -2.57843e-005 -4.04509e-007 1
    length 6.72091
    axis 8.18909e-005 -0.122003 -0.403008 xyz
    dof rx ry rz
  end
  begin
    id 5
    name RightToes
    direction 0.00116825 -0.014069 0.9999
    length 3.85082
    axis 0.000514414 0.540638 -0.356797 xyz
    dof rx ry rz
  end
  begin
    id 6
    name SpineDummy
    direction 0.0168869 0.966876 -0.254689
    length 6.99894
    axis 0 0 0 xyz
  end
  begin
    id 7
    name Spine
    direction -0.0132008 0.999903 0.00446247
    length 11.1999
    axis -0.00148109 0.00725429 0.756411 xyz
    dof rx ry rz
  end
  begin
    id 8
    name Spine1
    direction 0 0 0
    length 0
    axis -0.000934958 0.0245693 1.46543 xyz
    dof rx ry rz
  end
  begin
    id 9
    name HEadDummy
    direction -0.0255732 0.999672 0.00128215
    length 3.43865
    axis -0.000934958 0.0245693 1.46543 xyz
  end
  begin
    id 10
    name HEad
    direction -0.0472656 0.980052 0.19304
    length 5.12695
    axis -0.000934954 0.0245693 1.46543 xyz
    dof rx ry rz
  end
  begin
    id 11
    name LeftShoulder1Dummy
    direction 0.953098 0.301717 -0.023914
    length 3.68488
    axis -0.000934958 0.0245693 1.46543 xyz
  end
  begin
    id 12
    name LeftShoulder1
    direction 0.962466 0.271167 0.0112566
    length 3.13809
    axis -0.000934958 0.0245693 1.46543 xyz
    dof rx ry rz
  end
  begin
    id 13
    name LeftArm
    direction 0.999943 0.00455037 -0.00961766
    length 11.3419
    axis -23.1648 0.685459 1.22814 xyz
    dof rx ry rz
  end
  begin
    id 14
    name LeftForeArm
    direction 0.999332 0.0131969 0.0340885
    length 8.70632
    axis -9.90633 0.618216 0.0826942 xyz
    dof rx ry rz
  end
  begin
    id 15
    name LeftHand
    direction 0.994373 -0.0366703 0.0993905
    length 5.32135
    axis 0.00675269 0.680415 0.445699 xyz
    dof rx ry rz
  end
  begin
    id 16
    name RightShoulderDummy
    direction -0.967298 0.252589 -0.0230903
    length 3.68488
    axis -0.000934958 0.0245693 1.46543 xyz
  end
  begin
    id 17
    name RightShoulder
    direction -0.975062 0.221602 0.0120823
    length 3.13809
    axis 0.216257 0.0246515 1.45863 xyz
    dof rx ry rz
  end
  begin
    id 18
    name RightArm
    direction -0.99886 -0.00851186 -0.0469687
    length 10.3947
    axis -23.196 0.23503 -0.532632 xyz
    dof rx ry rz
  end
  begin
    id 19
    name RightForeArm
    direction -0.99909 0.00114866 0.0426317
    length 8.68355
    axis -9.91764 -0.134943 0.610517 xyz
    dof rx ry rz
  end
  begin
    id 20
    name RightHand
    direction -0.992888 -0.0489538 0.10852
    length 5.28593
    axis -0.00275396 -0.197403 0.246414 xyz
    dof rx ry rz
  end
  begin
    id 21
    name LeftUpLegDummy
    direction 1 -2.30186e-007 -8.31532e-007
    length 4.04083
    axis 0 0 0 xyz
  end
  begin
    id 22
    name LeftUpLeg
    direction -0.000920097 -1 2.79241e-006
    length 17.4221
    axis -3.48782 0.00143434 -0.0532288 xyz
    dof rx ry rz
  end
  begin
    id 23
    name LeftLeg
    direction -0.000920097 -1 2.7912e-006
    length 17.1239
    axis 3.68162 -0.00806512 -0.0529896 xyz
    dof rx ry rz
  end
  begin
    id 24
    name LeftFoot
    direction -2.57845e-005 -3.987e-007 1
    length 6.72091
    axis 3.02372e-005 -0.00147829 -0.214229 xyz
    dof rx ry rz
  end
  begin
    id 25
    name LeftToes
    direction 0.00813577 -0.00488255 0.999955
    length 3.85048
    axis 3.89895e-005 -0.0014783 -0.214229 xyz
    dof rx ry rz
  end
:hierarchy
  begin
    root RightUpLegDummy SpineDummy LeftUpLegDummy
    RightUpLegDummy RightUpLeg
    RightUpLeg RightLeg
    RightLeg RightFoot
    RightFoot RightToes
    SpineDummy Spine
    Spine Spine1
    Spine1 HEadDummy LeftShoulder1Dummy RightShoulderDummy
    HEadDummy HEad
    LeftShoulder1Dummy LeftShoulder1
    LeftShoulder1 LeftArm
    LeftArm LeftForeArm
    LeftForeArm LeftHand
    RightShoulderDummy RightShoulder
    RightShoulder RightArm
    RightArm RightForeArm
    RightForeArm RightHand
    LeftUpLegDummy LeftUpLeg
    LeftUpLeg LeftLeg
    LeftLeg LeftFoot
    LeftFoot LeftToes
  end

:SAMPLES-PER-SECOND 30
:FULLY-SPECIFIED
:DEGREES
37
root  -15.4345 34.647 -8.62495 -169.703 -2.4615 179.243
RightUpLeg  -9.25097 -9.94398 1.4567
RightLeg  5.92157 -1.25093 -0.0477398
RightFoot  2.41203 0.012523 0.0901139
RightToes  -19.1473 -0.0802726 -0.175105
Spine  -2.63281 0.0681381 -0.0139232
Spine1  -5.35555 0.276699 0.583206
HEad  -66.8101 -0.779129 6.28657
LeftShoulder1  -1.94126e-019 -3.10601e-018 -2.51263e-017
LeftArm  -7.15618 24.583 -84.1895
LeftForeArm  34.9178 -16.356 -2.68724
LeftHand  -0.516506 -3.16081 7.21007
RightShoulder  -4.96962e-017 0 -2.36833e-017
RightArm  -19.5173 -22.9419 78.7945
RightForeArm  58.9825 14.4353 1.15409
RightHand  -0.481175 0.458328 -9.49284
LeftUpLeg  -8.95849 -7.10928 -1.35533
LeftLeg  5.33848 10.7137 0.309181
LeftFoot  3.1928 -0.0215514 0.756182
LeftToes  -16.1847 1.31424e-006 1.14295e-007
38
root  -15.4329 34.647 -8.62336 -169.707 -2.46803 179.24
RightUpLeg  -9.25161 -9.95067 1.45526
RightLeg  5.93445 -1.25327 -0.0489422
RightFoot  2.4069 0.012523 0.0901139
RightToes  -19.1198 -0.0802726 -0.175105
Spine  -2.63571 0.0679578 -0.00921389
Spine1  -5.36148 0.276839 0.592218
HEad  -66.7597 -0.804134 6.32497
LeftShoulder1  -1.94126e-019 -3.10601e-018 -2.51263e-017
LeftArm  -7.15041 24.5866 -84.1999
LeftForeArm  34.9123 -16.3587 -2.68745
LeftHand  -0.515785 -3.13124 7.21385
RightShoulder  -4.96962e-017 0 -2.36833e-017
RightArm  -19.5313 -22.9421 78.7844
RightForeArm  58.9835 14.4301 1.15538
RightHand  -0.482008 0.477096 -9.48281
LeftUpLeg  -8.96127 -7.14 -1.35466
LeftLeg  5.34819 10.7344 0.309715
LeftFoot  3.19234 -0.0214588 0.754741
LeftToes  -16.2814 1.31424e-006 1.14295e-007
39
root  -15.4306 34.647 -8.62129 -169.714 -2.47034 179.238
RightUpLeg  -9.25251 -9.95255 1.45431
RightLeg  5.9434 -1.25403 -0.0501458
RightFoot  2.39529 0.012523 0.0901139
RightToes  -19.1471 -0.0802726 -0.175105
Spine  -2.64291 0.0677472 -0.00302253
Spine1  -5.37588 0.276824 0.604586
HEad  -66.7033 -0.853609 6.31927
LeftShoulder1  -1.94126e-019 -3.10601e-018 -2.51263e-017
LeftArm  -7.16162 24.5894 -84.2036
LeftForeArm  34.9125 -16.3352 -2.68518
LeftHand  -0.514979 -3.13171 7.2404
RightShoulder  -4.96962e-017 0 -2.36833e-017
RightArm  -19.5407 -22.9503 78.7842
RightForeArm  59.0023 14.4274 1.15605
RightHand  -0.482096 0.481257 -9.49663
LeftUpLeg  -8.96192 -7.14431 -1.35286
LeftLeg  5.35495 10.7289 0.311771
LeftFoot  3.17613 -0.0213594 0.753197
LeftToes  -16.2913 1.31424e-006 1.14295e-007
40
root  -15.4298 34.647 -8.62064 -169.72 -2.4624 179.237
RightUpLeg  -9.25369 -9.95241 1.45354
RightLeg  5.95055 -1.24016 -0.0531619
RightFoot  2.40368 0.012523 0.0901139
RightToes  -19.1829 -0.0802726 -0.175105
Spine  -2.64703 0.067515 0.00225224
Spine1  -5.38411 0.276592 0.615096
HEad  -66.6868 -0.845624 6.33612
LeftShoulder1  -1.94126e-019 -3.10601e-018 -2.51263e-017
LeftArm  -7.18225 24.5957 -84.2107
LeftForeArm  34.9196 -16.3173 -2.6832
LeftHand  -0.514113 -3.1051 7.25122
RightShoulder  -4.96962e-017 0 -2.36833e-017
RightArm  -19.5388 -22.952 78.7812
RightForeArm  59.0026 14.4299 1.15544
RightHand  -0.482883 0.46743 -9.48137
LeftUpLeg  -8.96144 -7.1622 -1.35262
LeftLeg  5.35811 10.7437 0.310308
LeftFoot  3.16619 -0.0212543 0.751563
LeftToes  -16.3353 1.31424e-006 1.14295e-007
41
root  -15.4294 34.6469 -8.62001 -169.726 -2.45979 179.236
RightUpLeg  -9.25572 -9.9509 1.45278
RightLeg  5.96155 -1.24161 -0.0538994
RightFoot  2.38916 0.012523 0.0901139
RightToes  -19.1571 -0.0802726 -0.175105
Spine  -2.64999 0.0672692 0.0144665
Spine1  -5.39087 0.27608 0.639502
HEad  -66.7066 -0.816045 6.30934
LeftShoulder1  -1.94126e-019 -3.10601e-018 -2.51263e-017
LeftArm  -7.1735 24.622 -84.2203
LeftForeArm  34.8867 -16.337 -2.6861
LeftHand  -0.513786 -3.11646 7.25849
RightShoulder  -4.96962e-017 0 -2.36833e-017
RightArm  -19.5319 -22.9586 78.773
RightForeArm  59.0001 14.4442 1.15186
RightHand  -0.482295 0.456792 -9.51622
LeftUpLeg  -8.96086 -7.15097 -1.35154
LeftLeg  5.36436 10.7354 0.312755
LeftFoot  3.15775 -0.0211446 0.749858
LeftToes  -16.3017 1.31424e-006 1.14295e-007
42
root  -15.4292 34.6468 -8.61932 -169.728 -2.45302 179.235
RightUpLeg  -9.26341 -9.94865 1.45188
RightLeg  5.98078 -1.24702 -0.0539389
RightFoot  2.38017 0.012523 0.0901139
RightToes  -19.1309 -0.0802726 -0.175105
Spine  -2.65253 0.0670186 0.0219715
Spine1  -5.39362 0.274755 0.653906
HEad  -66.7235 -0.793989 6.32129
LeftShoulder1  -1.94126e-019 -3.10601e-018 -2.51263e-017
LeftArm  -7.14336 24.6425 -84.2245
LeftForeArm  34.8571 -16.3631 -2.69004
LeftHand  -0.514121 -3.10454 7.21647
RightShoulder  -4.96962e-017 0 -2.36833e-017
RightArm  -19.5458 -22.9561 78.765
RightForeArm  58.9908 14.4356 1.15402
RightHand  -0.480626 0.478021 -9.59637
LeftUpLeg  -8.96051 -7.16055 -1.35293
LeftLeg  5.38153 10.7604 0.313373
LeftFoot  3.14919 -0.0210313 0.748098
LeftToes  -16.2435 1.31424e-006 1.14295e-007
43
root  -15.4293 34.6467 -8.61899 -169.73 -2.45326 179.234
RightUpLeg  -9.26534 -9.94435 1.45082
RightLeg  5.99091 -1.23449 -0.056301
RightFoot  2.38306 0.012523 0.0901139
RightToes  -19.2133 -0.0802726 -0.175105
Spine  -2.65566 0.0667715 0.0297487
Spine1  -5.40125 0.272842 0.669519
HEad  -66.7343 -0.806255 6.35503
LeftShoulder1  -1.94126e-019 -3.10601e-018 -2.51263e-017
LeftArm  -7.11352 24.6582 -84.2268
LeftForeArm  34.8861 -16.3961 -2.69476
LeftHand  -0.513308 -3.12017 7.2495
RightShoulder  -4.96962e-017 0 -2.36833e-017
RightArm  -19.5599 -22.9691 78.7661
RightForeArm  58.9714 14.425 1.15666
RightHand  -0.479295 0.4448 -9.65152
LeftUpLeg  -8.96092 -7.16179 -1.35521
LeftLeg  5.38826 10.754 0.317753
LeftFoot  3.1362 -0.0209155 0.746297
LeftToes  -16.2696 1.31424e-006 1.14295e-007
44
root  -15.4299 34.6465 -8.61942 -169.731 -2.45404 179.234
RightUpLeg  -9.26701 -9.94654 1.44888
RightLeg  6.00539 -1.24391 -0.0555348
RightFoot  2.3593 0.012523 0.0901139
RightToes  -19.095 -0.0802726 -0.175105
Spine  -2.6603 0.0665363 0.0355455
Spine1  -5.41062 0.270611 0.680802
HEad  -66.7315 -0.834515 6.39073
LeftShoulder1  -1.94126e-019 -3.10601e-018 -2.51263e-017
LeftArm  -7.10654 24.6633 -84.2293
LeftForeArm  34.8814 -16.3956 -2.69354
LeftHand  -0.512656 -3.09953 7.25015
RightShoulder  -4.96962e-017 0 -2.36833e-017
RightArm  -19.5647 -22.9757 78.7643
RightForeArm  58.9901 14.4116 1.16001
RightHand  -0.481776 0.465449 -9.5827
LeftUpLeg  -8.96747 -7.12715 -1.35961
LeftLeg  5.40358 10.7246 0.322981
LeftFoot  3.12788 -0.0207061 0.743043
LeftToes  -16.2989 1.31424e-006 1.14295e-007
